<mxfile host="65bd71144e">
    <diagram id="m4cEC9tyf7Ktz2re7ZH0" name="PÃ¡gina-1">
        <mxGraphModel dx="650" dy="470" grid="1" gridSize="10" guides="1" tooltips="1" connect="1" arrows="1" fold="1" page="1" pageScale="1" pageWidth="827" pageHeight="1169" math="0" shadow="0">
            <root>
                <mxCell id="0"/>
                <mxCell id="1" parent="0"/>
                <mxCell id="2" value="" style="edgeStyle=none;html=1;" edge="1" parent="1" source="3" target="5">
                    <mxGeometry relative="1" as="geometry"/>
                </mxCell>
                <mxCell id="3" value="&lt;font color=&quot;#000000&quot; size=&quot;1&quot;&gt;&lt;b&gt;&lt;i style=&quot;font-size: 13px&quot;&gt;INICIO&lt;/i&gt;&lt;/b&gt;&lt;/font&gt;" style="ellipse;whiteSpace=wrap;html=1;fillColor=#B266FF;strokeColor=#000000;fontColor=#ffffff;gradientColor=#E5CCFF;" vertex="1" parent="1">
                    <mxGeometry x="336.26" y="40" width="122.5" height="50" as="geometry"/>
                </mxCell>
                <mxCell id="19" value="" style="edgeStyle=none;html=1;fontColor=#000000;" edge="1" parent="1" source="5" target="11">
                    <mxGeometry relative="1" as="geometry"/>
                </mxCell>
                <mxCell id="5" value="&lt;b&gt;&lt;i style=&quot;font-size: 13px&quot;&gt;&lt;font color=&quot;#000000&quot; style=&quot;font-size: 13px&quot;&gt;C1&lt;br&gt;C2&lt;br&gt;C3&lt;/font&gt;&lt;/i&gt;&lt;/b&gt;" style="shape=parallelogram;perimeter=parallelogramPerimeter;whiteSpace=wrap;html=1;fixedSize=1;fillColor=#99FF99;fontColor=#ffffff;strokeColor=#000000;gradientColor=#009900;" vertex="1" parent="1">
                    <mxGeometry x="336.26" y="120" width="125" height="70" as="geometry"/>
                </mxCell>
                <mxCell id="9" value="" style="edgeStyle=none;html=1;" edge="1" parent="1" source="11" target="12">
                    <mxGeometry relative="1" as="geometry"/>
                </mxCell>
                <mxCell id="10" value="" style="edgeStyle=none;html=1;" edge="1" parent="1" source="11" target="14">
                    <mxGeometry relative="1" as="geometry">
                        <Array as="points">
                            <mxPoint x="600" y="305"/>
                        </Array>
                    </mxGeometry>
                </mxCell>
                <mxCell id="11" value="&lt;b&gt;&lt;i&gt;&lt;font style=&quot;font-size: 13px&quot;&gt;(C1 +C2) &amp;lt; C3&amp;nbsp;&lt;/font&gt;&lt;/i&gt;&lt;/b&gt;" style="rhombus;whiteSpace=wrap;html=1;fillColor=#CCFFFF;strokeColor=#000000;fontColor=#000000;" vertex="1" parent="1">
                    <mxGeometry x="343.13" y="250" width="108.75" height="110" as="geometry"/>
                </mxCell>
                <mxCell id="12" value="&lt;font color=&quot;#000000&quot; style=&quot;font-size: 13px&quot;&gt;&lt;b&gt;&lt;i&gt;C1 = C1 + (C1*0.3 %)&lt;br&gt;C2 = C2 +&amp;nbsp; (C2 * 0.4%)&lt;br&gt;Meses = Meses +1&amp;nbsp;&amp;nbsp;&lt;/i&gt;&lt;/b&gt;&lt;/font&gt;" style="whiteSpace=wrap;html=1;fillColor=#FFCC99;strokeColor=#000000;fontColor=#ffffff;gradientColor=#CCCCCC;" vertex="1" parent="1">
                    <mxGeometry x="322.5" y="420" width="145" height="80" as="geometry"/>
                </mxCell>
                <mxCell id="13" value="" style="edgeStyle=none;html=1;" edge="1" parent="1" source="14" target="15">
                    <mxGeometry relative="1" as="geometry"/>
                </mxCell>
                <mxCell id="14" value="&lt;font style=&quot;font-size: 14px&quot;&gt;&lt;b&gt;&lt;i&gt;Meses&lt;/i&gt;&lt;/b&gt;&lt;/font&gt;" style="shape=document;whiteSpace=wrap;html=1;boundedLbl=1;fillColor=#9999FF;strokeColor=#000000;fontColor=#000000;gradientColor=#E5CCFF;" vertex="1" parent="1">
                    <mxGeometry x="540" y="340" width="120" height="80" as="geometry"/>
                </mxCell>
                <mxCell id="15" value="&lt;b&gt;&lt;i&gt;&lt;font style=&quot;font-size: 13px&quot;&gt;Fin&amp;nbsp;&lt;/font&gt;&lt;/i&gt;&lt;/b&gt;" style="ellipse;whiteSpace=wrap;html=1;fillColor=#FF3399;strokeColor=#000000;fontColor=#000000;gradientColor=#CC99FF;" vertex="1" parent="1">
                    <mxGeometry x="540" y="500" width="120" height="60" as="geometry"/>
                </mxCell>
                <mxCell id="17" value="&lt;font color=&quot;#000000&quot; style=&quot;background-color: rgb(255 , 153 , 204)&quot;&gt;&lt;b&gt;&lt;i&gt;Verddero&lt;/i&gt;&lt;/b&gt;&lt;/font&gt;" style="text;html=1;align=center;verticalAlign=middle;resizable=0;points=[];autosize=1;strokeColor=none;fillColor=none;" vertex="1" parent="1">
                    <mxGeometry x="305" y="380" width="70" height="20" as="geometry"/>
                </mxCell>
                <mxCell id="18" value="" style="endArrow=none;html=1;exitX=0.5;exitY=1;exitDx=0;exitDy=0;" edge="1" parent="1" source="12">
                    <mxGeometry width="50" height="50" relative="1" as="geometry">
                        <mxPoint x="290" y="500" as="sourcePoint"/>
                        <mxPoint x="400" y="230" as="targetPoint"/>
                        <Array as="points">
                            <mxPoint x="395" y="520"/>
                            <mxPoint x="250" y="520"/>
                            <mxPoint x="250" y="370"/>
                            <mxPoint x="250" y="230"/>
                            <mxPoint x="330" y="230"/>
                        </Array>
                    </mxGeometry>
                </mxCell>
                <mxCell id="20" value="&lt;font color=&quot;#000000&quot; style=&quot;background-color: rgb(255 , 153 , 204)&quot;&gt;&lt;b&gt;&lt;i&gt;Falso&lt;/i&gt;&lt;/b&gt;&lt;/font&gt;" style="text;html=1;align=center;verticalAlign=middle;resizable=0;points=[];autosize=1;strokeColor=none;fillColor=none;" vertex="1" parent="1">
                    <mxGeometry x="447.5" y="270" width="50" height="20" as="geometry"/>
                </mxCell>
            </root>
        </mxGraphModel>
    </diagram>
</mxfile>